HIERARCHY
ROOT Hips
{
    OFFSET 0.000000 0.000000 0.000000
    CHANNELS 6 Xposition Yposition Zposition Zrotation Xrotation Yrotation
    JOINT Spine
    {
        OFFSET -0.000000 8.603107 0.000000
        CHANNELS 3 Zrotation Xrotation Yrotation
        JOINT Spine1
        {
            OFFSET -0.000000 23.906662 0.000000
            CHANNELS 3 Zrotation Xrotation Yrotation
            JOINT Neck
            {
                OFFSET -0.000000 23.808481 2.164407
                CHANNELS 3 Zrotation Xrotation Yrotation
                JOINT Head
                {
                    OFFSET -0.000000 14.688231 -2.098319
                    CHANNELS 3 Zrotation Xrotation Yrotation
                    End Site
                    {
                        OFFSET -0.000000 26.228985 0.000000
                    }
                }
            }
            JOINT LeftShoulder
            {
                OFFSET 4.178941 22.658146 -0.129871
                CHANNELS 3 Zrotation Xrotation Yrotation
                JOINT LeftArm
                {
                    OFFSET 9.497952 0.000000 0.000000
                    CHANNELS 3 Zrotation Xrotation Yrotation
                    JOINT LeftForeArm
                    {
                        OFFSET 38.855015 0.000000 0.000000
                        CHANNELS 3 Zrotation Xrotation Yrotation
                        JOINT LeftHand
                        {
                            OFFSET 24.940550 0.000000 0.000000
                            CHANNELS 3 Zrotation Xrotation Yrotation
                            End Site
                            {
                                OFFSET 15.737392 0.000000 0.000000
                            }
                        }
                    }
                }
            }
            JOINT RightShoulder
            {
                OFFSET -4.145384 22.658146 -0.129871
                CHANNELS 3 Zrotation Xrotation Yrotation
                JOINT RightArm
                {
                    OFFSET -9.497952 0.000000 0.000000
                    CHANNELS 3 Zrotation Xrotation Yrotation
                    JOINT RightForeArm
                    {
                        OFFSET -38.855015 0.000000 0.000000
                        CHANNELS 3 Zrotation Xrotation Yrotation
                        JOINT RightHand
                        {
                            OFFSET -24.940550 0.000000 0.000000
                            CHANNELS 3 Zrotation Xrotation Yrotation
                            End Site
                            {
                                OFFSET -15.737392 0.000000 0.000000
                            }
                        }
                    }
                }
            }
        }
    }
    JOINT LeftUpLeg
    {
        OFFSET 10.491594 0.000000 0.000000
        CHANNELS 3 Zrotation Xrotation Yrotation
        JOINT LeftLeg
        {
            OFFSET -0.000000 -46.080647 0.000000
            CHANNELS 3 Zrotation Xrotation Yrotation
            JOINT LeftFoot
            {
                OFFSET -0.000000 -50.184704 0.000000
                CHANNELS 3 Zrotation Xrotation Yrotation
                JOINT LeftToeBase
                {
                    OFFSET -0.000000 -6.819536 15.737392
                    CHANNELS 3 Zrotation Xrotation Yrotation
                    End Site
                    {
                        OFFSET -0.000000 0.000000 4.196638
                    }
                }
            }
        }
    }
    JOINT RightUpLeg
    {
        OFFSET -10.491594 0.000000 0.000000
        CHANNELS 3 Zrotation Xrotation Yrotation
        JOINT RightLeg
        {
            OFFSET -0.000000 -46.080647 0.000000
            CHANNELS 3 Zrotation Xrotation Yrotation
            JOINT RightFoot
            {
                OFFSET -0.000000 -50.184704 0.000000
                CHANNELS 3 Zrotation Xrotation Yrotation
                JOINT RightToeBase
                {
                    OFFSET -0.000000 -6.819536 15.737392
                    CHANNELS 3 Zrotation Xrotation Yrotation
                    End Site
                    {
                        OFFSET -0.000000 0.000000 4.196638
                    }
                }
            }
        }
    }
}
MOTION
Frames:    10
Frame Time:    0.008333
-7.750419    103.198502    41.307579    -1.051002    0.128217    93.520676    -0.195863    -6.326953    0.449093    -1.383178    -2.003378    0.435818    4.921777    17.075451    0.088537    2.127161    -1.396218    0.460068    15.126767    -2.030027    -11.757866    -11.745924    -1.314451    6.768339    1.804843    -1.512586    -0.298353    3.373275    -1.442820    2.210980    -15.078835    0.648405    -6.446525    11.091419    -0.329418    2.624085    -0.484631    -3.484660    -1.883612    -4.041081    -3.404622    -2.498356    -0.108659    -0.074387    0.026670    -2.909891    9.600824    0.066917    1.266425    -9.743432    13.812244    0.000000    0.000000    0.000000    -0.097320    4.477962    -2.514964    2.415132    0.055464    -0.865355    -1.520571    -4.813536    -12.068263    0.000000    0.000000    0.000000    
-7.723317    103.197800    41.331303    -1.038663    0.117307    93.465057    -0.233659    -6.314501    0.414272    -1.355264    -2.076156    0.402779    4.929737    17.044605    0.155530    2.036873    -1.308533    0.512596    15.173545    -1.973958    -11.708322    -11.813988    -1.222357    6.902025    1.821274    -1.471206    -0.315644    3.556690    -1.395725    2.269532    -15.076769    0.668531    -6.474734    11.159966    -0.336151    2.713433    -0.567781    -3.671117    -1.749590    -4.187932    -3.577298    -2.808053    -0.085496    -0.031630    0.015662    -2.918612    9.586433    0.093015    1.386450    -9.699673    13.830380    0.000000    0.000000    0.000000    -0.069796    4.518832    -2.537222    2.406537    0.002473    -1.026862    -1.510151    -4.790034    -11.833196    0.000000    0.000000    0.000000    
-7.708102    103.197388    41.338856    -1.032242    0.111622    93.426643    -0.265816    -6.333051    0.409929    -1.312764    -2.063226    0.401094    4.921190    17.013935    0.193905    2.031573    -1.291230    0.549547    15.221620    -1.965500    -11.666610    -11.890845    -1.136524    6.926505    1.831537    -1.455045    -0.257886    3.570446    -1.382318    2.201132    -15.124519    0.658122    -6.517210    11.223853    -0.289735    2.765764    -0.629205    -3.620294    -1.754860    -4.008780    -3.536217    -2.682560    -0.081975    -0.006765    0.018847    -2.872208    9.629902    0.044013    1.371937    -9.737220    13.807620    0.000000    0.000000    0.000000    -0.059942    4.538666    -2.541762    2.403375    -0.015493    -1.024730    -1.501282    -4.779777    -11.795285    0.000000    0.000000    0.000000    
-7.692115    103.196716    41.344261    -1.016716    0.104638    93.387360    -0.285951    -6.340808    0.403812    -1.276286    -2.057581    0.396699    4.973167    17.025110    0.218869    1.904386    -1.305877    0.557263    15.250566    -1.939519    -11.600617    -11.928425    -1.094625    6.917757    1.775975    -1.516011    -0.227296    3.782259    -1.437920    2.259852    -15.147856    0.644920    -6.551985    11.245947    -0.236483    2.829053    -0.629753    -3.630766    -1.740778    -4.116388    -3.542073    -2.738920    -0.073873    0.024551    0.014406    -2.916032    9.565197    0.156034    1.479970    -9.671855    13.840034    0.000000    0.000000    0.000000    -0.048782    4.565877    -2.551088    2.399521    -0.029543    -1.010520    -1.501374    -4.772036    -11.756556    0.000000    0.000000    0.000000    
-7.676388    103.193352    41.348595    -1.002611    0.095984    93.337395    -0.328063    -6.356697    0.402947    -1.179707    -2.054704    0.400009    4.935988    17.079269    0.240642    1.870780    -1.362011    0.577795    15.219160    -1.947656    -11.576450    -11.944417    -1.062529    6.950318    1.788656    -1.509612    -0.174985    3.620095    -1.433478    2.322963    -15.195207    0.641420    -6.566584    11.258607    -0.228626    2.874189    -0.666641    -3.559278    -1.740941    -3.991010    -3.476374    -2.674282    -0.063808    0.042984    0.088505    -2.869047    9.645658    -0.015642    1.496257    -9.729357    13.877780    0.000000    0.000000    0.000000    -0.040794    4.585359    -2.543712    2.402340    -0.037644    -1.017618    -1.503231    -4.768125    -11.711836    0.000000    0.000000    0.000000    
-7.661274    103.192375    41.347118    -0.989019    0.094151    93.282951    -0.337981    -6.362599    0.403074    -1.140208    -2.064220    0.401323    4.910254    17.107721    0.267747    1.840877    -1.379522    0.603045    15.198024    -1.964725    -11.505844    -11.927812    -1.115271    6.939849    1.829340    -1.411738    -0.078035    3.319334    -1.343425    2.314420    -15.349469    0.524445    -6.610092    11.411255    -0.161658    2.936655    -0.686914    -3.438449    -1.773971    -3.968341    -3.361780    -2.524228    -0.076036    0.069048    0.094404    -2.890595    9.591657    0.093885    1.569624    -9.673755    13.904792    0.000000    0.000000    0.000000    -0.044684    4.607428    -2.528797    2.406808    -0.043171    -1.009703    -1.493385    -4.772558    -11.686340    0.000000    0.000000    0.000000    
-7.643522    103.189827    41.345085    -0.960700    0.092945    93.225182    -0.356100    -6.365803    0.402637    -1.075076    -2.053308    0.403199    4.853807    17.137627    0.306536    1.825468    -1.413663    0.642278    15.157195    -1.999970    -11.436209    -11.904942    -1.174412    6.940043    1.851280    -1.402819    -0.048463    2.983577    -1.338011    2.459934    -15.409887    0.483145    -6.616280    11.435974    -0.164484    2.974247    -0.694877    -3.427303    -1.740702    -3.971887    -3.349645    -2.548187    -0.078287    0.113469    0.082404    -2.897261    9.585519    0.142833    1.606643    -9.672984    13.926723    0.000000    0.000000    0.000000    -0.049379    4.637259    -2.554950    2.410782    -0.035887    -0.957061    -1.480529    -4.782921    -11.660914    0.000000    0.000000    0.000000    
-7.627078    103.188774    41.340797    -0.937955    0.087893    93.154259    -0.333423    -6.366031    0.409992    -1.078350    -2.067879    0.409131    4.840878    17.201221    0.342975    1.806965    -1.463515    0.680979    15.149309    -2.028104    -11.378062    -11.884615    -1.247799    6.953855    1.900342    -1.392718    -0.078241    2.277461    -1.336628    2.759914    -15.404219    0.391016    -6.652807    11.422930    -0.132243    3.049444    -0.669377    -3.559322    -1.674111    -4.224933    -3.467966    -2.746176    -0.082922    0.143271    0.094820    -2.853472    9.660621    0.062962    1.574045    -9.733511    13.960866    0.000000    0.000000    0.000000    -0.049952    4.657357    -2.521364    2.406291    -0.033543    -0.987293    -1.482858    -4.778710    -11.587199    0.000000    0.000000    0.000000    
-7.616408    103.186562    41.337074    -0.919917    0.077900    93.101555    -0.308672    -6.320035    0.405630    -1.079013    -2.197017    0.401999    4.867855    17.368305    0.376256    1.723729    -1.546210    0.711827    15.094825    -2.013722    -11.400689    -11.848693    -1.307227    7.046342    1.922633    -1.366052    -0.086052    2.079787    -1.312478    2.871665    -15.344006    0.436109    -6.564671    11.389924    -0.298117    3.032860    -0.713582    -3.580874    -1.631806    -4.183321    -3.490283    -2.762974    -0.078832    0.162463    0.075840    -2.900053    9.619434    0.205260    1.690630    -9.685059    13.995285    0.000000    0.000000    0.000000    -0.045331    4.669650    -2.527471    2.407568    -0.023399    -0.962083    -1.470840    -4.782819    -11.566200    0.000000    0.000000    0.000000    
-7.602920    103.184418    41.329662    -0.901461    0.075848    93.042297    -0.295983    -6.356127    0.410843    -1.045486    -2.128494    0.407936    4.813591    17.315130    0.419219    1.699374    -1.513965    0.749403    15.121586    -2.066460    -11.305965    -11.896225    -1.314797    7.018468    1.913908    -1.389678    -0.079130    1.904156    -1.338330    3.013865    -15.425240    0.410599    -6.606598    11.442535    -0.344055    3.097421    -0.799597    -3.621977    -1.540577    -3.882004    -3.537819    -2.804704    -0.085378    0.184517    0.066905    -2.904042    9.634346    0.235776    1.704458    -9.696909    14.037232    0.000000    0.000000    0.000000    -0.048472    4.688517    -2.523609    2.403801    -0.021356    -0.951723    -1.448531    -4.790215    -11.524229    0.000000    0.000000    0.000000    
